<svg version="1.1" id="Layer_1" xmlns="http://www.w3.org/2000/svg" x="0" y="0" width="100%" viewBox="0 0 736 736" xml:space="preserve"><path fill="#fff" d="M580.606 186.604c5.913 10.628 3.93 20.973.057 31.18-4.521 11.914-11.285 22.628-18.456 33.09-2.046 2.983-4.083 5.971-6.513 9.526 4.164.71 7.546.149 10.96-.054 16.852-.998 33.69-1.242 49.762 5.054 17.401 6.816 22.645 22.504 13.058 38.542-4.871 8.15-11.914 14.32-19.275 20.068-19.275 15.052-40.68 26.598-62.619 37.152-4.71 2.266-6.18 4.956-6.456 10.173-3.543 66.675-34.273 116.695-92.762 149.187-25.411 14.116-53.027 20.616-81.98 20.489-31.215-.137-60.658-7.766-87.597-23.833-4.416-2.634-7.456-2.334-11.639.333-19.25 12.276-39 23.708-60.273 32.2-10.225 4.083-20.664 7.563-31.899 7.436-18.068-.205-29.034-13.415-25.759-31.175 2.306-12.5 8-23.593 14.784-34.166 4.206-6.557 8.614-12.984 13.239-19.93-3.101-.822-5.66-.332-8.25-.163-16.663 1.088-33.3 1.466-49.526-3.49-18.79-5.738-26.107-23.252-16.35-39.271 3.302-5.42 7.464-10.208 12.266-14.402 20.79-18.153 44.872-31.032 69.47-43 4.943-2.404 6.885-5.035 7.065-10.825 1.22-39.398 14.147-74.7 39.23-105.17 29.099-35.347 66.601-56.424 111.953-62.485 39.343-5.258 76.602 1.957 111.012 22.164 4.109 2.413 7.146 2.57 11.309-.067 21.407-13.556 43.237-26.375 67.259-34.925 8.688-3.092 17.545-5.08 26.875-4.707 8.696.348 15.87 3.356 21.055 11.07m-315.831 73.674c-31.903 32.115-47.22 70.656-44.614 115.996 1.073 18.653 6.092 36.336 14.135 53.211 1.768 3.71 3.856 4.47 7.827 3.664 45.225-9.166 89.682-21.233 133.685-35.037 3.63-1.139 7.258-2.264 10.29-4.877 35.858-30.888 70.308-63.246 102.796-97.685 3.003-3.183 3.068-5.578.752-9.084-10.594-16.032-23.507-29.8-39.422-40.59-33.509-22.719-70.24-31.084-110.217-23.902-28.63 5.144-53.337 18.246-75.232 38.304m180.744 143.883c-13.218 4.562-26.446 9.096-39.65 13.702-4.855 1.694-9.644 3.388-13.702 6.893-28.13 24.3-57.625 46.856-87.938 68.356-1.279.907-3.044 1.493-3.227 3.464 39.46 22.284 101.336 24.57 151.094-11.529 34.229-24.833 67.269-84.276 59.531-107.237-21.556 9.317-43.308 18.1-66.108 26.35M185.65 441.925c5.117-.593 10.287-.904 15.336-1.858 5.007-.946 5.79-2.705 3.88-7.333-4.013-9.714-7.087-19.708-9.372-29.962-.304-1.366-.238-3.044-2.342-4.145-22.32 12.004-45.565 23.029-63.455 42.645 18.457 4.082 36.744 2.734 55.953.653m391.863-153.675c-15.355.02-30.54 1.95-45.715 4.033-3.51.482-5.506 2.389-4.136 5.753 4.536 11.136 7.854 22.622 10.684 34.275.113.466.455.875.88 1.664 23.059-12.333 46.166-23.531 65.248-42.968-9.413-3.033-17.71-2.733-26.96-2.757M185.687 527.153c22.556-7.02 42.6-18.96 64.274-32.221-2.402-1.509-4-2.207-5.212-3.323-7.121-6.56-13.313-13.954-19.018-21.755-4.159-5.688-5.756-5.77-10.443-.12-10.63 12.814-20.654 26.078-29.28 40.34-3.408 5.633-6.449 11.478-8.316 18.138 2.909.855 5.024-.533 7.995-1.06m365.406-312.557c1.329-3.125 3.668-5.931 3.097-10.94-26.002 5.805-47.556 19.746-70.217 32.93 9.093 8.446 16.514 16.733 23.118 25.744 4.23 5.772 5.973 5.93 10.542.283 12.141-15.007 24.14-30.13 33.46-48.017m-91.56 154.214c15.976-6.655 31.948-13.32 47.935-19.953 2.201-.914 4.606-1.638 4.15-4.732-1.21-8.191-3.22-16.176-6.231-24.693-17.322 17.223-33.696 34.312-52.035 51.41 2.728-.888 4.12-1.342 6.18-2.032M315.951 444.65c-20.192 5.747-40.769 9.974-61.835 14.947 4.805 7.106 10.826 11.826 16.158 17.201 2.32 2.339 4.08 2.495 6.764.555 10.902-7.878 22.035-15.438 32.896-23.371 4.135-3.02 8.534-5.867 12.737-10.711-2.81.543-4.402.85-6.72 1.379z"/><path d="M53.01 618.659c210.639-.006 420.78 0 630.92-.044 10.6-.002 10.712 2.128 10.71-10.878-.01-162.146-.017-324.293-.006-486.44 0-1.78-.422-3.681 1.033-5.43 3.755.375 3.511 3.352 3.542 5.878.089 7.331-.013 14.664-.008 21.996.05 67.658-.11 135.317.286 202.973.122 20.99-.262 41.979.008 62.954.62 47.99.433 95.979.302 143.966-.055 20.319-.584 40.63.147 60.95.269 7.449-1.484 9.021-8.965 9.405-3.16.163-6.33.16-9.496.159-209.973-.052-419.947-.111-629.92-.173-2.333 0-4.677.088-6.995-.11-2.34-.2-4.672-.682-5.53-4.193 4.385-1.99 9.045-.575 13.972-1.013z"/></svg>